<?xml version="1.0" encoding="utf-8"?>
<!-- Generator: Adobe Illustrator 21.0.0, SVG Export Plug-In . SVG Version: 6.00 Build 0)  -->
<svg version="1.1" id="Layer_1" xmlns="http://www.w3.org/2000/svg" xmlns:xlink="http://www.w3.org/1999/xlink" x="0px" y="0px"
	 viewBox="0 0 512 512" style="enable-background:new 0 0 512 512;" xml:space="preserve">
<style type="text/css">
	.st0{fill:#E6EF56;}
	.st1{fill:#067D9A;}
</style>
<g>
	<path class="st0" d="M0,75v362c0,41.4,33.6,75,75,75h362c41.4,0,75-33.6,75-75V75c0-41.4-33.6-75-75-75H75C33.6,0,0,33.6,0,75z"/>
	<path class="st1" d="M211,406h60V286c0-16.5,13.5-30,30-30s30,13.5,30,30v120h60V275.7c0-43.1-34.3-79.6-75-79.7
		c-19.1,0-29.3,6.4-45,11.3V196h-60V406z"/>
	<rect x="121" y="106" class="st1" width="60" height="60"/>
	<rect x="121" y="196" class="st1" width="60" height="210"/>
</g>
</svg>
