<?xml version="1.0" encoding="utf-8"?>
<!-- Generator: Adobe Illustrator 21.0.0, SVG Export Plug-In . SVG Version: 6.00 Build 0)  -->
<svg version="1.1" id="Layer_1" xmlns="http://www.w3.org/2000/svg" xmlns:xlink="http://www.w3.org/1999/xlink" x="0px" y="0px"
	 viewBox="0 0 512 512" style="enable-background:new 0 0 512 512;" xml:space="preserve">
<style type="text/css">
	.st0{fill:#E6EF56;}
	.st1{fill:#067D9A;}
</style>
<g>
	<path class="st0" d="M0,75v362c0,41.4,33.6,75,75,75h361c41.4,0,76-33.6,76-75V75c0-41.4-34.6-75-76-75H75C33.6,0,0,33.6,0,75z"/>
	<rect x="286" y="151" class="st1" width="120" height="30"/>
	<path class="st1" d="M91,361h90c33.1,0,60-26.9,60-60c0-18-8.1-34-20.7-45c12.6-11,20.7-27,20.7-45c0-33.1-26.9-60-60-60H91V361z"
		/>
	<path class="st1" d="M271,286c0,41.4,33.6,75,75,75c26.7,0,51.6-14.4,64.9-37.5l-26-15c-8,13.9-23,22.5-39,22.5
		c-19.6,0-36.2-12.5-42.4-30H421v-15c0-41.4-33.6-75-75-75S271,244.6,271,286z"/>
	<path class="st0" d="M181,181h-60v60h60c16.5,0,30-13.5,30-30S197.5,181,181,181z M181,271h-60v60h60c16.5,0,30-13.5,30-30
		S197.5,271,181,271z M346,241c-19.6,0-36.2,12.5-42.4,30h84.9C382.2,253.5,365.6,241,346,241z"/>
</g>
</svg>
