<?xml version="1.0" encoding="utf-8"?>
<!-- Generator: Adobe Illustrator 21.0.0, SVG Export Plug-In . SVG Version: 6.00 Build 0)  -->
<svg version="1.1" id="Layer_1" xmlns="http://www.w3.org/2000/svg" xmlns:xlink="http://www.w3.org/1999/xlink" x="0px" y="0px"
	 viewBox="0 0 512 512" style="enable-background:new 0 0 512 512;" xml:space="preserve">
<style type="text/css">
	.st0{fill:#E6EF56;}
	.st1{fill:#187E9A;}
</style>
<g>
	<path class="st0" d="M0,75v362c0,41.4,33.6,75,75,75h362c41.4,0,75-33.6,75-75V75c0-41.4-33.6-75-75-75H75C33.6,0,0,33.6,0,75z"/>
</g>
<path class="st0" d="M407,90c-8.3,0-15,6.7-15,15s6.7,15,15,15s15-6.7,15-15S415.3,90,407,90z M257,150c-57.9,0-105,47.1-105,105
	s47.1,105,105,105s105-47.1,105-105S314.9,150,257,150z"/>
<path class="st1" d="M442.4,157.3L324.2,98.2h-2l0,0c-2,0-2,0-4.1,2l-71.3,116.2l81.5,130.5l116.2-187.5
	C444.4,159.4,442.4,157.3,442.4,157.3z"/>
<path class="st1" d="M208,175.7V302l112.1,57.1L208,175.7z"/>
<path class="st1" d="M330.3,363.2l104,51c6.1,2,10.2,0,10.2-6.1V179.7L330.3,363.2z M195.8,157.3l-108-55l-8.2-2h-2c-2-2-2,0-2,0
	s-2,2-2,4.1V351c0,4.1,4.1,10.2,6.1,10.2l106,53c2,0,2,2,4.1,2c4.1,0,6.1-2,6.1-8.2V159.4C197.8,159.4,195.8,157.3,195.8,157.3z"/>
</svg>
