<?xml version="1.0" encoding="utf-8"?>
<!-- Generator: Adobe Illustrator 21.0.0, SVG Export Plug-In . SVG Version: 6.00 Build 0)  -->
<svg version="1.1" id="Layer_1" xmlns="http://www.w3.org/2000/svg" xmlns:xlink="http://www.w3.org/1999/xlink" x="0px" y="0px"
	 viewBox="0 0 512 512" style="enable-background:new 0 0 512 512;" xml:space="preserve">
<style type="text/css">
	.st0{fill:#E6EF56;}
	.st1{fill:#E6EF56;stroke:#187E9A;stroke-width:30.593;stroke-miterlimit:10;}
	.st2{fill:#187E9A;}
</style>
<title>torre</title>
<path class="st0" d="M0,75v362c0,41.4,33.6,75,75,75h362c41.4,0,75-33.6,75-75V75c0-41.4-33.6-75-75-75H75C33.6,0,0,33.6,0,75z"/>
<path class="st1" d="M441,331.1V181.7c0-17.6-9.5-33.8-24.9-42.4L279,62.9c-14.7-8.2-32.5-8.2-47.2,0L94.7,139.2
	c-15.4,8.6-25,24.8-24.9,42.4v149.4c0,17.6,9.5,33.8,24.9,42.4l137.1,76.3c14.7,8.2,32.5,8.2,47.2,0L416,373.5
	C431.4,364.9,441,348.7,441,331.1z"/>
<path class="st2" d="M310.3,329.8c-2.7,2.1-10.3,7-23.6,6.6c-12.8-0.4-18.8-6.3-18.8-6.3s-5.4-4.6-4.8-15.9l0,0V232h42.3v-32.3
	h-43.8v-45.3h-38.4v45.3c0-0.5-20.8-0.1-20.8-0.1v34.7h22.3v79.9l0.1,1.1c0,0,0.2,7.9,0.2,12.9c0,0-0.8,22.8,14.4,31l4.9,2.4
	c10.4,4,21.9,5.8,33.1,5.8c8.6,0,17.2-1.6,25.3-4.7l7.3-2.9c0.7-0.3,1.2-1,1.2-1.8v-27.7c0-0.4-0.3-0.7-0.6-0.7
	C310.5,329.7,310.4,329.7,310.3,329.8z"/>
</svg>
